<?xml version="1.0" encoding="UTF-8" standalone="no"?>
<!DOCTYPE svg PUBLIC "-//W3C//DTD SVG 1.1//EN" "http://www.w3.org/Graphics/SVG/1.1/DTD/svg11.dtd">
<svg width="110px" height="100%" viewBox="0 0 148 101" version="1.1" xmlns="http://www.w3.org/2000/svg" xmlns:xlink="http://www.w3.org/1999/xlink" xml:space="preserve" xmlns:serif="http://www.serif.com/" style="fill-rule:evenodd;clip-rule:evenodd;stroke-linejoin:round;stroke-miterlimit:2;">
    <g transform="matrix(1,0,0,1,-154.938,-88.9512)">
        <g transform="matrix(144,0,0,144,147.738,189.751)">
            <path d="M0.424,-0L0.194,-0L0.155,-0.025L0.155,-0L0.05,-0L0.05,-0.7L0.155,-0.7L0.155,-0.457L0.182,-0.478L0.424,-0.478L0.527,-0.391L0.527,-0.087L0.424,-0ZM0.423,-0.341L0.387,-0.371L0.203,-0.371L0.155,-0.319L0.155,-0.152L0.197,-0.108L0.387,-0.108L0.423,-0.139L0.423,-0.341Z" style="fill-rule:nonzero;"/>
        </g>
        <g transform="matrix(1,0,0,1,-184.687,61.5706)">
            <g transform="matrix(144,0,0,144,411.371,128.181)">
                <path d="M0.424,-0L0.194,-0L0.155,-0.025L0.155,-0L0.05,-0L0.05,-0.7L0.155,-0.7L0.155,-0.457L0.182,-0.478L0.424,-0.478L0.527,-0.391L0.527,-0.087L0.424,-0ZM0.423,-0.341L0.387,-0.371L0.203,-0.371L0.155,-0.319L0.155,-0.152L0.197,-0.108L0.387,-0.108L0.423,-0.139L0.423,-0.341Z" style="fill-rule:nonzero;"/>
            </g>
        </g>
    </g>
</svg>
